<?xml version="1.0" encoding="utf-8"?>
<!-- Generator: Adobe Illustrator 23.0.0, SVG Export Plug-In . SVG Version: 6.00 Build 0)  -->
<svg version="1.1" id="Layer_1" xmlns="http://www.w3.org/2000/svg" xmlns:xlink="http://www.w3.org/1999/xlink" x="0px" y="0px"
	 viewBox="0 0 125.13 121.76" style="enable-background:new 0 0 125.13 121.76;" xml:space="preserve">
<style type="text/css">
	.st0{fill:#FFFFFF;}
</style>
<path id="SVGID_x5F_1_x5F_" style="fill:none;" d="M-260-42.77c25.84-26.9,68.58-27.76,95.48-1.92
	c17.27,16.59,23.79,40.15,19.41,62.01"/>
<text><textPath  xlink:href="#SVGID_x5F_1_x5F_" startOffset="6.4635%">
<tspan  style="font-family:'AnonymousPro-Regular'; font-size:19px;">Doing </tspan><tspan  style="font-family:'AnonymousPro-Bold'; font-size:19px;">Non-Doing</tspan></textPath>
</text>
<g>
	<path d="M-0.79-97.49c0.53,0.61,0.97,1.25,1.33,1.91c0.35,0.67,0.57,1.33,0.65,1.99c0.08,0.66,0,1.31-0.23,1.94
		c-0.23,0.63-0.67,1.22-1.3,1.77l-2.97,2.58l-7.94-9.14l2.97-2.58c0.62-0.54,1.26-0.88,1.93-1.02c0.66-0.14,1.32-0.12,1.97,0.06
		s1.28,0.48,1.89,0.92C-1.89-98.62-1.32-98.1-0.79-97.49z M-1.75-96.65c-1.04-1.2-2.07-1.92-3.09-2.19
		c-1.02-0.26-1.93-0.05-2.73,0.65l-2.01,1.75l6.52,7.5l2.01-1.75c0.8-0.7,1.15-1.57,1.03-2.61C-0.13-94.34-0.71-95.46-1.75-96.65z"
		/>
	<path d="M8.85-102.04c0.37,0.56,0.63,1.13,0.75,1.71c0.13,0.58,0.14,1.14,0.02,1.69c-0.11,0.55-0.34,1.07-0.68,1.56
		c-0.34,0.49-0.79,0.93-1.37,1.31c-0.56,0.37-1.13,0.62-1.72,0.75C5.27-94.9,4.7-94.89,4.15-95s-1.07-0.33-1.55-0.67
		C2.12-96,1.69-96.45,1.32-97.01c-0.36-0.54-0.61-1.11-0.75-1.7c-0.14-0.59-0.15-1.16-0.04-1.71c0.11-0.55,0.33-1.08,0.67-1.58
		c0.34-0.5,0.79-0.93,1.35-1.31c0.57-0.38,1.15-0.63,1.74-0.75c0.59-0.12,1.16-0.13,1.71-0.02s1.08,0.34,1.57,0.69
		C8.06-103.04,8.48-102.59,8.85-102.04z M7.79-101.33c-0.27-0.41-0.59-0.75-0.94-1.02c-0.35-0.27-0.73-0.45-1.15-0.56
		c-0.41-0.1-0.84-0.12-1.27-0.04c-0.44,0.08-0.87,0.25-1.29,0.54c-0.42,0.28-0.75,0.61-0.99,0.98c-0.24,0.37-0.38,0.77-0.44,1.19
		S1.69-99.4,1.8-98.97c0.11,0.43,0.3,0.85,0.58,1.26c0.27,0.41,0.59,0.75,0.94,1.02c0.35,0.27,0.73,0.45,1.13,0.54
		c0.4,0.1,0.82,0.1,1.25,0.02c0.43-0.08,0.86-0.26,1.28-0.54s0.75-0.61,0.99-0.98c0.24-0.37,0.4-0.76,0.46-1.17
		c0.07-0.41,0.05-0.83-0.06-1.26C8.26-100.5,8.07-100.92,7.79-101.33z"/>
	<path d="M12.07-110.7l-1.54,0.78l-0.79-1.55l1.54-0.78L12.07-110.7z M18.32-102.25L13.7-99.9l-0.49-0.97l1.73-0.88L12-107.51
		l-1.73,0.88l-0.49-0.97l2.88-1.47l3.43,6.74l1.74-0.88L18.32-102.25z"/>
	<path d="M28.78-106.58l-1.21,0.46l-1.88-4.98c-0.27-0.72-0.64-1.22-1.1-1.5c-0.46-0.28-1.04-0.29-1.74-0.03
		c-0.44,0.17-0.8,0.42-1.08,0.75s-0.48,0.72-0.6,1.15c-0.12,0.43-0.16,0.89-0.13,1.38s0.14,0.96,0.32,1.44l1.37,3.62l-1.19,0.45
		l-3.05-8.09l1.19-0.45l0.77,2.03c0.01-1.7,0.76-2.82,2.23-3.38c1.99-0.75,3.4-0.03,4.23,2.16L28.78-106.58z"/>
	<path d="M38.4-109.41c0.15,0.57,0.19,1.11,0.11,1.61s-0.26,0.95-0.53,1.36s-0.63,0.75-1.07,1.04s-0.95,0.51-1.55,0.67
		c-0.83,0.22-1.58,0.25-2.24,0.09c-0.66-0.16-1.29-0.48-1.86-0.95l0.69-0.89c0.36,0.32,0.81,0.55,1.37,0.69
		c0.55,0.14,1.14,0.12,1.76-0.04c0.85-0.22,1.46-0.61,1.84-1.17s0.47-1.24,0.25-2.05l-0.24-0.9c-0.56,0.84-1.31,1.38-2.24,1.62
		c-1.31,0.34-2.43,0.24-3.38-0.31c-0.94-0.55-1.58-1.48-1.92-2.78c-0.17-0.63-0.22-1.24-0.17-1.83s0.21-1.12,0.47-1.61
		c0.26-0.49,0.62-0.91,1.08-1.26c0.46-0.35,1.02-0.62,1.67-0.79c0.45-0.12,0.92-0.15,1.38-0.11s0.92,0.19,1.36,0.41l-0.2-0.76
		l1.25-0.33L38.4-109.41z M35.5-115.4c-0.45-0.3-0.91-0.48-1.38-0.54c-0.47-0.06-0.93-0.03-1.4,0.09c-0.49,0.13-0.9,0.33-1.23,0.6
		c-0.33,0.27-0.58,0.59-0.74,0.95c-0.17,0.36-0.26,0.77-0.28,1.21c-0.02,0.44,0.03,0.9,0.15,1.36c0.25,0.96,0.7,1.65,1.34,2.09
		c0.64,0.44,1.46,0.53,2.45,0.27c0.47-0.12,0.89-0.33,1.26-0.61c0.38-0.29,0.69-0.67,0.94-1.16L35.5-115.4z"/>
	<path d="M58.36-111.85l-2.22,0.13l-4.09-8.55l0.51,8.76l-1.92,0.11l-0.7-12.09l2.41-0.14l3.88,8.13l-0.48-8.33l1.92-0.11
		L58.36-111.85z"/>
	<path d="M69.26-115.96c-0.02,0.67-0.15,1.28-0.39,1.82s-0.56,1-0.97,1.39s-0.9,0.68-1.47,0.88c-0.56,0.2-1.19,0.29-1.88,0.26
		c-0.67-0.03-1.28-0.16-1.83-0.4c-0.55-0.24-1.01-0.57-1.4-0.99s-0.67-0.9-0.86-1.46s-0.28-1.17-0.25-1.85
		c0.02-0.66,0.15-1.26,0.39-1.81c0.23-0.55,0.56-1.02,0.97-1.41c0.41-0.39,0.9-0.68,1.47-0.88c0.56-0.2,1.18-0.29,1.86-0.26
		c0.69,0.03,1.3,0.16,1.85,0.4c0.55,0.24,1.01,0.57,1.4,0.99c0.38,0.42,0.67,0.91,0.86,1.48C69.2-117.22,69.29-116.61,69.26-115.96z
		 M67.34-116.02c0.01-0.39-0.03-0.76-0.14-1.12c-0.11-0.35-0.27-0.66-0.49-0.92c-0.22-0.26-0.49-0.46-0.8-0.62
		c-0.32-0.16-0.68-0.24-1.08-0.26c-0.41-0.02-0.77,0.04-1.1,0.18c-0.33,0.13-0.6,0.32-0.83,0.56c-0.23,0.24-0.41,0.53-0.55,0.88
		c-0.13,0.35-0.21,0.71-0.22,1.1c-0.02,0.41,0.03,0.78,0.14,1.12c0.11,0.34,0.27,0.64,0.48,0.9c0.21,0.26,0.48,0.47,0.79,0.62
		c0.31,0.15,0.68,0.23,1.08,0.25c0.4,0.02,0.76-0.04,1.09-0.17s0.61-0.31,0.85-0.56c0.24-0.25,0.42-0.53,0.55-0.86
		C67.25-115.25,67.33-115.62,67.34-116.02z"/>
	<path d="M78.42-110.52l-1.9-0.26l0.71-5.29c0.09-0.67,0.03-1.15-0.19-1.44s-0.56-0.47-1.04-0.53c-0.71-0.1-1.32,0.11-1.84,0.62
		c-0.52,0.51-0.85,1.27-0.98,2.27l-0.52,3.84l-1.9-0.26l1.16-8.57l1.9,0.26l-0.29,2.15c0.29-0.72,0.72-1.25,1.29-1.59
		c0.57-0.34,1.23-0.47,1.99-0.36c0.88,0.12,1.52,0.5,1.94,1.13c0.42,0.64,0.55,1.55,0.39,2.73L78.42-110.52z"/>
	<path d="M81.1-113.77l0.4-1.68l8.41,2l-0.4,1.68L81.1-113.77z"/>
	<path d="M100.6-110.7c-0.27,0.76-0.6,1.46-1.01,2.1s-0.87,1.15-1.41,1.55c-0.54,0.4-1.14,0.65-1.8,0.77
		c-0.67,0.11-1.39,0.03-2.18-0.24l-3.71-1.3l4.01-11.42l3.71,1.3c0.78,0.27,1.39,0.66,1.84,1.17c0.45,0.51,0.76,1.08,0.93,1.73
		c0.17,0.64,0.22,1.34,0.14,2.09C101.04-112.22,100.87-111.46,100.6-110.7z M98.79-111.34c0.46-1.32,0.59-2.41,0.39-3.26
		c-0.2-0.86-0.72-1.43-1.54-1.72l-1.9-0.67l-2.87,8.17l1.9,0.67c0.82,0.29,1.58,0.16,2.28-0.4
		C97.76-109.11,98.34-110.04,98.79-111.34z"/>
	<path d="M109.39-104.74c-0.29,0.61-0.65,1.11-1.08,1.52c-0.43,0.4-0.91,0.7-1.44,0.89c-0.53,0.19-1.1,0.26-1.7,0.22
		s-1.21-0.21-1.83-0.5c-0.61-0.29-1.12-0.66-1.52-1.1s-0.7-0.93-0.89-1.46c-0.19-0.53-0.26-1.09-0.21-1.68
		c0.05-0.59,0.21-1.19,0.5-1.79c0.28-0.59,0.64-1.09,1.08-1.51s0.92-0.72,1.45-0.91c0.53-0.19,1.1-0.27,1.7-0.23
		c0.6,0.04,1.2,0.21,1.81,0.5c0.62,0.3,1.13,0.66,1.54,1.1c0.41,0.44,0.7,0.93,0.89,1.46s0.25,1.1,0.2,1.7
		C109.84-105.92,109.68-105.33,109.39-104.74z M107.66-105.56c0.17-0.35,0.27-0.71,0.32-1.08c0.04-0.37,0.01-0.71-0.08-1.03
		c-0.1-0.32-0.26-0.62-0.49-0.89c-0.23-0.27-0.52-0.49-0.89-0.67c-0.37-0.18-0.73-0.27-1.08-0.27c-0.35-0.01-0.68,0.05-0.99,0.18
		c-0.31,0.13-0.59,0.32-0.85,0.59c-0.26,0.26-0.47,0.57-0.64,0.92c-0.18,0.37-0.28,0.73-0.32,1.08c-0.04,0.35-0.01,0.69,0.08,1.02
		s0.25,0.62,0.48,0.88c0.23,0.26,0.53,0.48,0.89,0.66c0.36,0.17,0.72,0.27,1.07,0.28s0.69-0.04,1-0.17s0.6-0.32,0.85-0.57
		C107.27-104.89,107.48-105.2,107.66-105.56z"/>
	<path d="M114.7-96.51l-4.91-3.1l0.92-1.46l1.62,1.02l2.77-4.4l-1.62-1.02l0.92-1.46l3.24,2.04l-3.69,5.85l1.67,1.05L114.7-96.51z
		 M118.42-105.72l-1.98-1.25l1.25-1.98l1.98,1.25L118.42-105.72z"/>
	<path d="M123.38-89.88l-1.48-1.22l3.38-4.12c0.43-0.52,0.63-0.96,0.59-1.32c-0.03-0.36-0.23-0.7-0.61-1
		c-0.55-0.45-1.18-0.6-1.89-0.44c-0.71,0.16-1.39,0.63-2.03,1.42l-2.46,3l-1.48-1.22l5.48-6.68l1.48,1.22l-1.38,1.68
		c0.62-0.46,1.27-0.68,1.93-0.68c0.67,0.01,1.29,0.25,1.88,0.73c0.68,0.56,1.04,1.22,1.06,1.99c0.02,0.76-0.34,1.6-1.1,2.53
		L123.38-89.88z"/>
	<path d="M130.4-82.86c-0.44,0.4-0.89,0.69-1.37,0.85c-0.48,0.17-0.96,0.22-1.45,0.17c-0.49-0.05-0.96-0.2-1.42-0.45
		c-0.46-0.25-0.9-0.6-1.32-1.05c-1.02-1.1-1.56-2.35-1.62-3.75l1.71-0.34c0.04,1.17,0.43,2.14,1.16,2.93
		c0.45,0.48,0.93,0.77,1.45,0.84c0.51,0.08,1.02-0.12,1.53-0.59l0.68-0.63c-0.52-0.06-0.96-0.17-1.33-0.32
		c-0.37-0.16-0.72-0.41-1.04-0.76c-0.38-0.41-0.64-0.87-0.79-1.38c-0.15-0.51-0.2-1.03-0.13-1.55c0.06-0.53,0.23-1.04,0.49-1.55
		s0.62-0.97,1.06-1.38c0.44-0.41,0.93-0.73,1.46-0.96c0.53-0.23,1.06-0.35,1.58-0.37c0.53-0.02,1.04,0.07,1.53,0.26
		s0.93,0.49,1.31,0.9c0.33,0.35,0.56,0.72,0.7,1.11c0.14,0.39,0.21,0.83,0.22,1.32l0.57-0.53l1.31,1.41L130.4-82.86z M133.67-88.52
		c0.03-0.34-0.03-0.69-0.18-1.04c-0.15-0.36-0.34-0.66-0.57-0.91c-0.49-0.53-1.08-0.79-1.75-0.77c-0.68,0.02-1.3,0.29-1.88,0.83
		c-0.29,0.27-0.51,0.55-0.67,0.87s-0.26,0.63-0.29,0.95c-0.03,0.32,0,0.64,0.11,0.95c0.1,0.31,0.27,0.6,0.51,0.86
		c0.23,0.25,0.52,0.46,0.87,0.63c0.35,0.17,0.69,0.25,1.04,0.25L133.67-88.52z"/>
</g>
<path d="M61.48,200c-45.85,0-83.02,29.6-83.02,66.12H144.5C144.5,229.6,107.33,200,61.48,200z"/>
<path class="st0" d="M43.03,17.31l-4.41,2.15l-0.45-0.92l1.65-0.81l-2.69-5.51l-1.65,0.8l-0.45-0.92l2.75-1.34l3.14,6.44l1.66-0.81
	L43.03,17.31z M37.26,9.19l-1.47,0.72l-0.72-1.48l1.47-0.72L37.26,9.19z"/>
<g>
	<path class="st0" d="M24.79,22.85c0.58,0.51,1.07,1.05,1.48,1.63c0.41,0.58,0.7,1.18,0.86,1.79s0.17,1.23,0.02,1.85
		s-0.48,1.23-1,1.82l-2.47,2.79l-8.6-7.59l2.47-2.79c0.52-0.58,1.08-0.98,1.68-1.19c0.61-0.21,1.22-0.28,1.85-0.19
		s1.26,0.29,1.89,0.62S24.22,22.34,24.79,22.85z M24,23.75c-1.12-0.99-2.18-1.55-3.17-1.67c-0.99-0.12-1.82,0.2-2.49,0.95
		l-1.67,1.89l7.05,6.23l1.67-1.89c0.67-0.76,0.88-1.61,0.65-2.58C25.8,25.72,25.12,24.74,24,23.75z"/>
	<path class="st0" d="M33.86,17.62c0.39,0.51,0.66,1.03,0.81,1.57c0.16,0.54,0.2,1.07,0.12,1.59c-0.08,0.53-0.26,1.03-0.55,1.52
		c-0.29,0.49-0.7,0.93-1.21,1.32c-0.51,0.39-1.04,0.66-1.58,0.81s-1.08,0.19-1.61,0.13c-0.53-0.07-1.03-0.25-1.5-0.54
		c-0.48-0.29-0.91-0.69-1.3-1.2c-0.38-0.49-0.65-1.02-0.81-1.56s-0.21-1.09-0.14-1.62c0.07-0.53,0.25-1.04,0.54-1.53
		s0.69-0.93,1.2-1.31c0.52-0.39,1.05-0.67,1.6-0.82c0.55-0.15,1.09-0.19,1.62-0.12c0.53,0.07,1.04,0.26,1.52,0.56
		C33.05,16.72,33.48,17.12,33.86,17.62z M32.9,18.35c-0.28-0.37-0.6-0.67-0.95-0.9c-0.35-0.23-0.72-0.38-1.12-0.46
		c-0.4-0.07-0.8-0.06-1.21,0.04c-0.41,0.1-0.8,0.29-1.19,0.58c-0.38,0.29-0.67,0.62-0.88,0.99c-0.2,0.37-0.32,0.75-0.35,1.15
		c-0.03,0.4,0.02,0.79,0.15,1.19c0.13,0.4,0.34,0.78,0.62,1.15c0.28,0.37,0.6,0.67,0.95,0.9c0.35,0.23,0.72,0.38,1.1,0.45
		s0.78,0.05,1.18-0.05c0.4-0.1,0.8-0.3,1.18-0.59c0.38-0.29,0.68-0.62,0.88-0.98c0.21-0.36,0.33-0.74,0.37-1.13
		c0.04-0.39,0-0.79-0.13-1.18S33.19,18.72,32.9,18.35z"/>
	<path class="st0" d="M53.15,14.04l-1.18,0.31L50.7,9.46c-0.18-0.71-0.48-1.22-0.89-1.53c-0.41-0.31-0.95-0.38-1.64-0.2
		c-0.43,0.11-0.79,0.31-1.09,0.6c-0.3,0.29-0.52,0.63-0.68,1.03c-0.16,0.39-0.24,0.82-0.26,1.28c-0.02,0.46,0.04,0.92,0.16,1.39
		l0.93,3.55l-1.17,0.3l-2.07-7.93l1.17-0.3l0.52,1.99c0.18-1.6,0.99-2.58,2.44-2.96c1.95-0.51,3.21,0.31,3.77,2.46L53.15,14.04z"/>
	<path class="st0" d="M62.56,13.05c0.03,0.56-0.04,1.07-0.2,1.52s-0.42,0.84-0.75,1.16s-0.73,0.58-1.19,0.77
		c-0.46,0.19-0.98,0.3-1.56,0.33c-0.81,0.05-1.51-0.07-2.1-0.34c-0.59-0.27-1.11-0.68-1.55-1.23l0.81-0.7
		c0.27,0.37,0.65,0.66,1.14,0.89c0.49,0.23,1.04,0.33,1.64,0.29c0.83-0.05,1.47-0.29,1.93-0.74c0.46-0.45,0.66-1.06,0.62-1.85
		l-0.05-0.88c-0.68,0.67-1.47,1.03-2.38,1.09c-1.28,0.07-2.31-0.24-3.08-0.92s-1.19-1.67-1.27-2.94c-0.04-0.62,0.03-1.2,0.19-1.73
		c0.16-0.53,0.41-1,0.74-1.41c0.33-0.4,0.75-0.73,1.24-0.97c0.5-0.24,1.06-0.38,1.7-0.42c0.44-0.03,0.88,0.03,1.31,0.16
		c0.43,0.13,0.82,0.35,1.18,0.64l-0.04-0.74l1.22-0.07L62.56,13.05z M60.98,6.94c-0.37-0.36-0.76-0.61-1.18-0.76S58.94,5.97,58.49,6
		c-0.48,0.03-0.9,0.14-1.25,0.33c-0.36,0.19-0.64,0.44-0.87,0.74c-0.22,0.31-0.39,0.66-0.49,1.07c-0.1,0.41-0.14,0.84-0.11,1.29
		c0.05,0.93,0.34,1.67,0.85,2.19s1.26,0.76,2.23,0.71c0.46-0.03,0.88-0.14,1.29-0.33s0.76-0.5,1.09-0.9L60.98,6.94z"/>
	<path class="st0" d="M80.94,16.82l-1.99-0.7l-0.47-8.97L75.74,15l-1.72-0.6l3.79-10.83l2.16,0.75l0.44,8.52l2.61-7.46l1.72,0.6
		L80.94,16.82z"/>
	<path class="st0" d="M91.88,18.12c-0.33,0.55-0.71,1-1.15,1.34c-0.44,0.35-0.92,0.58-1.44,0.72c-0.52,0.13-1.06,0.16-1.62,0.07
		c-0.56-0.09-1.12-0.3-1.68-0.63c-0.55-0.33-1-0.71-1.34-1.16s-0.59-0.93-0.72-1.45c-0.13-0.52-0.15-1.05-0.06-1.6
		c0.09-0.55,0.3-1.1,0.63-1.65c0.32-0.53,0.7-0.98,1.14-1.33c0.44-0.35,0.93-0.6,1.45-0.74s1.06-0.16,1.62-0.07
		c0.56,0.09,1.11,0.3,1.66,0.62c0.56,0.33,1.01,0.72,1.36,1.17c0.35,0.45,0.59,0.93,0.72,1.46c0.13,0.52,0.15,1.06,0.05,1.62
		S92.19,17.58,91.88,18.12z M90.31,17.19c0.19-0.32,0.32-0.65,0.39-0.99c0.07-0.34,0.07-0.67,0.01-0.98
		c-0.07-0.31-0.2-0.61-0.39-0.88c-0.19-0.27-0.45-0.51-0.78-0.7c-0.33-0.2-0.66-0.31-0.99-0.35s-0.65-0.01-0.95,0.09
		c-0.3,0.09-0.58,0.26-0.85,0.48c-0.27,0.23-0.49,0.5-0.68,0.82c-0.2,0.33-0.33,0.67-0.39,1s-0.07,0.65-0.01,0.97
		c0.06,0.31,0.18,0.61,0.38,0.87c0.19,0.27,0.46,0.5,0.79,0.7c0.33,0.19,0.66,0.31,0.99,0.35s0.65,0.02,0.96-0.08
		c0.31-0.1,0.59-0.25,0.85-0.47C89.88,17.8,90.11,17.53,90.31,17.19z"/>
	<path class="st0" d="M96.51,27.34l-1.35-1.22l3.38-3.76c0.43-0.48,0.63-0.88,0.62-1.23c-0.01-0.34-0.19-0.67-0.53-0.97
		c-0.5-0.45-1.09-0.61-1.77-0.49c-0.68,0.12-1.34,0.54-1.98,1.25l-2.46,2.73l-1.35-1.22l5.47-6.09l1.35,1.22l-1.37,1.53
		c0.61-0.41,1.23-0.59,1.86-0.56c0.63,0.03,1.21,0.29,1.75,0.77c0.62,0.56,0.93,1.2,0.92,1.92c-0.01,0.72-0.39,1.5-1.15,2.35
		L96.51,27.34z"/>
	<path class="st0" d="M100.51,26.42l1.31-0.98l4.91,6.56l-1.31,0.98L100.51,26.42z"/>
	<path class="st0" d="M112.38,41.27c-0.69,0.33-1.39,0.57-2.08,0.73c-0.7,0.15-1.36,0.18-1.98,0.09c-0.63-0.09-1.2-0.33-1.72-0.7
		c-0.52-0.37-0.95-0.91-1.29-1.63l-1.6-3.36l10.35-4.94l1.6,3.36c0.34,0.7,0.48,1.38,0.44,2.02s-0.22,1.23-0.54,1.78
		c-0.32,0.54-0.75,1.04-1.31,1.49C113.69,40.55,113.07,40.94,112.38,41.27z M111.6,39.63c1.2-0.57,2.01-1.21,2.45-1.92
		s0.48-1.44,0.12-2.18l-0.82-1.72l-7.4,3.53l0.82,1.72c0.36,0.75,0.95,1.17,1.79,1.27S110.42,40.19,111.6,39.63z"/>
	<path class="st0" d="M113.63,51.69c-0.62,0.16-1.21,0.2-1.76,0.13s-1.06-0.24-1.52-0.51s-0.85-0.64-1.19-1.1
		c-0.33-0.46-0.58-1.01-0.74-1.64c-0.16-0.62-0.2-1.21-0.12-1.77c0.08-0.56,0.25-1.07,0.53-1.53c0.27-0.46,0.64-0.85,1.1-1.17
		c0.46-0.32,0.99-0.56,1.61-0.72c0.6-0.15,1.18-0.19,1.75-0.13c0.56,0.07,1.08,0.24,1.54,0.51c0.46,0.27,0.86,0.64,1.19,1.1
		c0.33,0.46,0.57,1,0.73,1.62c0.16,0.63,0.2,1.23,0.13,1.79s-0.25,1.07-0.53,1.53c-0.28,0.46-0.65,0.85-1.12,1.18
		C114.77,51.3,114.23,51.54,113.63,51.69z M113.18,49.93c0.36-0.09,0.68-0.23,0.98-0.42s0.53-0.42,0.7-0.69
		c0.18-0.27,0.29-0.57,0.35-0.9c0.06-0.33,0.04-0.68-0.05-1.05c-0.09-0.37-0.25-0.69-0.45-0.95c-0.21-0.26-0.45-0.46-0.73-0.61
		s-0.59-0.23-0.94-0.26c-0.35-0.03-0.7,0-1.06,0.09c-0.38,0.09-0.7,0.24-0.98,0.42c-0.28,0.19-0.51,0.41-0.69,0.68
		s-0.3,0.56-0.35,0.88c-0.05,0.33-0.03,0.68,0.06,1.05c0.09,0.37,0.24,0.68,0.44,0.95c0.2,0.27,0.45,0.47,0.73,0.62
		c0.29,0.15,0.6,0.24,0.93,0.28C112.45,50.05,112.81,50.02,113.18,49.93z"/>
	<path class="st0" d="M110.3,60.57l-0.27-5.5l1.63-0.08l0.09,1.81l4.92-0.24l-0.09-1.81l1.63-0.08l0.18,3.63l-6.55,0.32l0.09,1.87
		L110.3,60.57z M119.46,58.45l-0.11-2.21l2.21-0.11l0.11,2.21L119.46,58.45z"/>
	<path class="st0" d="M109.33,70.83l0.26-1.8l5,0.74c0.63,0.09,1.09,0.04,1.37-0.16c0.28-0.2,0.45-0.53,0.52-0.98
		c0.1-0.67-0.09-1.25-0.57-1.75c-0.48-0.5-1.19-0.82-2.14-0.96l-3.63-0.53l0.27-1.8l8.1,1.19l-0.27,1.8l-2.03-0.3
		c0.67,0.28,1.17,0.7,1.49,1.24c0.32,0.54,0.43,1.17,0.32,1.89c-0.12,0.83-0.49,1.44-1.1,1.83c-0.61,0.39-1.47,0.5-2.59,0.34
		L109.33,70.83z"/>
	<path class="st0" d="M106.58,79.86c-0.53-0.19-0.97-0.45-1.32-0.78s-0.61-0.71-0.78-1.14s-0.25-0.9-0.24-1.39
		c0.01-0.5,0.11-1.02,0.31-1.57c0.48-1.34,1.3-2.34,2.45-3l1.03,1.29c-0.96,0.54-1.61,1.3-1.96,2.26c-0.21,0.59-0.24,1.12-0.08,1.58
		c0.16,0.46,0.55,0.81,1.17,1.03l0.83,0.3c-0.18-0.46-0.28-0.88-0.31-1.26s0.03-0.78,0.19-1.21c0.18-0.5,0.45-0.92,0.81-1.27
		c0.36-0.35,0.78-0.61,1.25-0.79s0.98-0.27,1.52-0.27c0.54,0,1.08,0.1,1.62,0.29c0.54,0.19,1.02,0.46,1.44,0.81
		c0.42,0.35,0.75,0.74,1,1.17c0.25,0.43,0.4,0.9,0.45,1.4c0.05,0.5-0.01,1-0.19,1.49c-0.15,0.43-0.37,0.79-0.63,1.07
		c-0.27,0.28-0.61,0.54-1.02,0.76l0.7,0.25l-0.62,1.71L106.58,79.86z M112.77,80.15c0.3-0.12,0.57-0.32,0.8-0.6
		c0.23-0.28,0.41-0.57,0.51-0.88c0.23-0.65,0.19-1.25-0.12-1.81c-0.31-0.56-0.81-0.97-1.51-1.22c-0.35-0.12-0.69-0.19-1.02-0.18
		c-0.33,0-0.64,0.06-0.93,0.17c-0.28,0.11-0.54,0.28-0.76,0.5c-0.22,0.22-0.39,0.49-0.5,0.81c-0.11,0.3-0.16,0.64-0.15,1.01
		s0.09,0.69,0.24,0.98L112.77,80.15z"/>
</g>
<g>
	<path class="st0" d="M99.53,99.76c-0.57-0.52-1.05-1.07-1.46-1.66c-0.4-0.59-0.68-1.19-0.83-1.8c-0.15-0.62-0.15-1.23,0.01-1.85
		c0.15-0.62,0.5-1.22,1.03-1.8l2.51-2.75l8.47,7.73l-2.51,2.75c-0.53,0.58-1.09,0.96-1.7,1.17c-0.61,0.2-1.23,0.26-1.86,0.16
		s-1.25-0.31-1.88-0.65S100.1,100.27,99.53,99.76z M100.35,98.87c1.11,1.01,2.16,1.59,3.15,1.72c0.99,0.14,1.82-0.17,2.5-0.91
		l1.7-1.86l-6.95-6.35l-1.7,1.86c-0.68,0.74-0.91,1.6-0.69,2.57C98.57,96.87,99.24,97.86,100.35,98.87z"/>
	<path class="st0" d="M90.38,104.84c-0.38-0.51-0.64-1.04-0.79-1.58c-0.15-0.54-0.18-1.07-0.09-1.6c0.08-0.52,0.28-1.03,0.58-1.51
		c0.3-0.48,0.71-0.92,1.23-1.3c0.51-0.38,1.05-0.64,1.6-0.78c0.55-0.14,1.09-0.18,1.61-0.1s1.02,0.26,1.5,0.56
		c0.47,0.3,0.9,0.71,1.28,1.22c0.37,0.5,0.63,1.03,0.79,1.58c0.15,0.55,0.19,1.09,0.11,1.62c-0.08,0.53-0.27,1.04-0.57,1.52
		s-0.7,0.92-1.22,1.3c-0.52,0.39-1.06,0.65-1.61,0.79c-0.55,0.14-1.09,0.17-1.62,0.09c-0.53-0.08-1.03-0.28-1.51-0.59
		C91.17,105.75,90.75,105.34,90.38,104.84z M91.35,104.12c0.28,0.38,0.59,0.68,0.93,0.92c0.35,0.24,0.71,0.39,1.11,0.48
		c0.39,0.08,0.8,0.08,1.21-0.02s0.81-0.28,1.19-0.56c0.39-0.28,0.69-0.61,0.89-0.97c0.21-0.36,0.33-0.74,0.37-1.14
		c0.04-0.4-0.01-0.79-0.13-1.19c-0.12-0.4-0.32-0.79-0.6-1.16c-0.28-0.38-0.59-0.68-0.93-0.92c-0.34-0.24-0.71-0.39-1.09-0.47
		s-0.78-0.06-1.18,0.03c-0.41,0.1-0.8,0.29-1.19,0.57c-0.39,0.29-0.69,0.61-0.9,0.97c-0.21,0.36-0.34,0.73-0.39,1.13
		s-0.01,0.79,0.11,1.19C90.87,103.36,91.07,103.75,91.35,104.12z"/>
	<path class="st0" d="M81.2,105l4.44-2.08l0.44,0.93l-1.66,0.78l2.6,5.56l1.66-0.78l0.44,0.93l-2.77,1.29l-3.03-6.49l-1.67,0.78
		L81.2,105z M86.83,113.21l1.48-0.69l0.7,1.49l-1.48,0.69L86.83,113.21z"/>
	<path class="st0" d="M71.03,108.1l1.19-0.29l1.19,4.9c0.17,0.71,0.46,1.23,0.86,1.54s0.95,0.39,1.63,0.23
		c0.43-0.1,0.8-0.3,1.1-0.58s0.53-0.62,0.7-1.01s0.26-0.82,0.28-1.28s-0.02-0.92-0.13-1.39l-0.87-3.57l1.17-0.28l1.93,7.96
		l-1.17,0.28l-0.49-2c-0.21,1.59-1.04,2.57-2.48,2.92c-1.96,0.48-3.2-0.37-3.72-2.52L71.03,108.1z"/>
	<path class="st0" d="M61.62,108.93c-0.02-0.56,0.05-1.07,0.23-1.51c0.18-0.45,0.43-0.83,0.77-1.15c0.34-0.32,0.74-0.57,1.2-0.75
		c0.46-0.18,0.99-0.28,1.57-0.31c0.81-0.03,1.51,0.09,2.1,0.37c0.58,0.28,1.09,0.7,1.53,1.26l-0.82,0.68
		c-0.27-0.37-0.64-0.67-1.13-0.91s-1.03-0.35-1.64-0.32c-0.83,0.03-1.48,0.27-1.94,0.71c-0.47,0.44-0.68,1.05-0.65,1.84l0.04,0.88
		c0.69-0.66,1.49-1.01,2.4-1.05c1.28-0.05,2.3,0.27,3.06,0.97s1.17,1.69,1.22,2.96c0.03,0.62-0.05,1.2-0.21,1.73s-0.42,1-0.76,1.39
		s-0.76,0.71-1.26,0.95c-0.5,0.23-1.07,0.36-1.71,0.39c-0.44,0.02-0.88-0.04-1.3-0.18c-0.42-0.14-0.82-0.36-1.17-0.66l0.03,0.75
		l-1.22,0.05L61.62,108.93z M63.09,115.07c0.36,0.37,0.75,0.63,1.17,0.78c0.42,0.15,0.86,0.22,1.31,0.2
		c0.48-0.02,0.9-0.12,1.26-0.31s0.65-0.43,0.88-0.73c0.23-0.3,0.4-0.66,0.51-1.06s0.15-0.84,0.14-1.29
		c-0.04-0.94-0.31-1.67-0.82-2.21s-1.25-0.78-2.22-0.74c-0.46,0.02-0.89,0.12-1.29,0.31c-0.4,0.19-0.77,0.48-1.1,0.88L63.09,115.07z
		"/>
	<path class="st0" d="M43.28,104.85l1.98,0.73l0.31,8.98l2.88-7.8l1.71,0.63l-3.97,10.76l-2.14-0.79l-0.29-8.53l-2.73,7.41
		l-1.71-0.63L43.28,104.85z"/>
	<path class="st0" d="M32.38,103.38c0.33-0.54,0.72-0.99,1.17-1.32s0.93-0.57,1.45-0.69s1.06-0.14,1.62-0.04
		c0.56,0.1,1.12,0.31,1.67,0.66c0.54,0.33,0.99,0.73,1.32,1.19c0.34,0.46,0.57,0.94,0.69,1.46c0.12,0.52,0.14,1.06,0.03,1.6
		c-0.1,0.55-0.32,1.1-0.65,1.64c-0.33,0.53-0.71,0.97-1.16,1.31c-0.45,0.35-0.94,0.58-1.46,0.71s-1.06,0.14-1.62,0.04
		s-1.11-0.32-1.65-0.65c-0.55-0.34-1-0.74-1.34-1.19c-0.34-0.45-0.57-0.94-0.69-1.47s-0.13-1.07-0.02-1.62
		S32.05,103.91,32.38,103.38z M33.93,104.33c-0.19,0.31-0.33,0.64-0.41,0.99c-0.08,0.34-0.08,0.67-0.02,0.98
		c0.06,0.31,0.19,0.61,0.38,0.89c0.19,0.28,0.45,0.52,0.77,0.72c0.33,0.2,0.66,0.32,0.99,0.37c0.33,0.04,0.65,0.02,0.95-0.07
		c0.3-0.09,0.59-0.25,0.86-0.47c0.27-0.22,0.5-0.49,0.7-0.81c0.2-0.33,0.34-0.66,0.41-0.99c0.07-0.33,0.08-0.65,0.02-0.97
		c-0.05-0.32-0.17-0.61-0.36-0.88s-0.45-0.51-0.78-0.71c-0.32-0.2-0.65-0.32-0.98-0.37c-0.33-0.05-0.65-0.03-0.96,0.07
		s-0.6,0.24-0.86,0.45C34.37,103.73,34.13,104,33.93,104.33z"/>
	<path class="st0" d="M27.9,94.08l1.33,1.24l-3.44,3.7c-0.43,0.47-0.65,0.87-0.64,1.22c0.01,0.34,0.18,0.67,0.52,0.98
		c0.49,0.46,1.08,0.63,1.76,0.52s1.35-0.52,2-1.22l2.5-2.69l1.33,1.24l-5.57,6l-1.33-1.24l1.4-1.51c-0.62,0.4-1.24,0.57-1.87,0.53
		s-1.21-0.31-1.74-0.8c-0.61-0.57-0.91-1.22-0.89-1.94s0.42-1.5,1.19-2.33L27.9,94.08z"/>
	<path class="st0" d="M23.89,94.94l-1.32,0.96l-4.8-6.64l1.32-0.96L23.89,94.94z"/>
	<path class="st0" d="M12.26,79.88c0.7-0.32,1.4-0.55,2.1-0.69c0.7-0.14,1.36-0.16,1.98-0.06c0.62,0.1,1.19,0.35,1.71,0.73
		c0.52,0.38,0.94,0.93,1.27,1.65l1.55,3.39l-10.43,4.76l-1.55-3.39c-0.32-0.71-0.46-1.38-0.41-2.02c0.05-0.64,0.24-1.23,0.57-1.77
		s0.77-1.03,1.33-1.47S11.56,80.2,12.26,79.88z M13.01,81.54c-1.21,0.55-2.03,1.18-2.48,1.88c-0.45,0.7-0.5,1.43-0.16,2.18
		l0.79,1.73l7.46-3.41l-0.79-1.73c-0.34-0.75-0.93-1.18-1.77-1.3C15.21,80.78,14.2,80.99,13.01,81.54z"/>
	<path class="st0" d="M11.19,69.46c0.62-0.15,1.21-0.18,1.76-0.1c0.55,0.08,1.06,0.26,1.51,0.54c0.45,0.28,0.84,0.66,1.17,1.12
		s0.56,1.01,0.71,1.65c0.15,0.62,0.18,1.21,0.09,1.77c-0.09,0.56-0.27,1.07-0.55,1.52c-0.28,0.45-0.65,0.84-1.12,1.15
		c-0.46,0.32-1,0.55-1.63,0.69c-0.6,0.14-1.19,0.17-1.75,0.1c-0.56-0.08-1.07-0.25-1.53-0.53c-0.46-0.28-0.85-0.65-1.17-1.12
		c-0.32-0.47-0.56-1.01-0.7-1.63c-0.15-0.63-0.18-1.23-0.1-1.79c0.08-0.56,0.27-1.07,0.56-1.52s0.67-0.84,1.14-1.16
		C10.04,69.83,10.58,69.6,11.19,69.46z M11.6,71.23c-0.36,0.08-0.69,0.22-0.99,0.41c-0.3,0.19-0.54,0.41-0.71,0.68
		s-0.3,0.56-0.37,0.89s-0.05,0.68,0.03,1.05c0.09,0.38,0.23,0.69,0.44,0.96s0.44,0.47,0.72,0.62c0.28,0.15,0.59,0.24,0.94,0.28
		c0.35,0.04,0.7,0.01,1.06-0.07c0.38-0.09,0.71-0.22,0.99-0.41s0.52-0.4,0.7-0.66c0.19-0.26,0.31-0.55,0.37-0.88
		c0.06-0.33,0.04-0.68-0.04-1.05c-0.09-0.37-0.23-0.69-0.43-0.96c-0.2-0.27-0.44-0.48-0.72-0.64c-0.28-0.16-0.59-0.25-0.93-0.29
		C12.34,71.12,11.98,71.14,11.6,71.23z"/>
	<path class="st0" d="M5.47,62.58l0.07,2.21l-2.21,0.07l-0.07-2.21L5.47,62.58z M14.66,60.61l0.18,5.5l-1.63,0.05l-0.06-1.81
		l-4.92,0.16l0.06,1.81l-1.63,0.05l-0.12-3.63l6.55-0.21l-0.06-1.87L14.66,60.61z"/>
	<path class="st0" d="M15.8,50.37l-0.3,1.79l-4.99-0.82c-0.63-0.1-1.09-0.06-1.37,0.14c-0.28,0.2-0.46,0.52-0.53,0.97
		c-0.11,0.66,0.07,1.25,0.54,1.76c0.47,0.51,1.18,0.84,2.13,1l3.63,0.6l-0.3,1.8l-8.08-1.33l0.29-1.8l2.03,0.33
		c-0.67-0.29-1.16-0.72-1.47-1.27C7.07,53,6.97,52.37,7.09,51.66c0.14-0.83,0.51-1.43,1.13-1.81s1.48-0.48,2.6-0.29L15.8,50.37z"/>
	<path class="st0" d="M18.71,41.39c0.53,0.2,0.96,0.47,1.3,0.8c0.34,0.34,0.59,0.72,0.76,1.16c0.16,0.43,0.23,0.9,0.22,1.4
		c-0.02,0.5-0.13,1.02-0.33,1.56c-0.5,1.33-1.34,2.32-2.5,2.95l-1.01-1.3c0.97-0.53,1.64-1.27,2-2.22c0.22-0.59,0.26-1.11,0.1-1.58
		s-0.54-0.82-1.15-1.05l-0.82-0.31c0.17,0.46,0.26,0.89,0.29,1.26c0.02,0.38-0.05,0.78-0.21,1.21c-0.19,0.49-0.46,0.91-0.83,1.25
		c-0.37,0.34-0.79,0.6-1.26,0.77s-0.98,0.25-1.52,0.24s-1.08-0.11-1.62-0.32s-1.01-0.48-1.43-0.84s-0.74-0.75-0.98-1.19
		s-0.38-0.91-0.43-1.41c-0.05-0.5,0.02-1,0.21-1.49c0.16-0.43,0.38-0.78,0.65-1.06c0.27-0.28,0.62-0.53,1.03-0.75l-0.69-0.26
		l0.64-1.7L18.71,41.39z M12.52,41c-0.3,0.12-0.57,0.31-0.81,0.59c-0.24,0.28-0.42,0.56-0.53,0.87c-0.24,0.64-0.21,1.25,0.08,1.81
		c0.3,0.57,0.8,0.98,1.49,1.25c0.35,0.13,0.68,0.2,1.02,0.2c0.33,0,0.64-0.05,0.93-0.16c0.29-0.11,0.54-0.27,0.76-0.49
		c0.22-0.22,0.39-0.48,0.51-0.8c0.11-0.3,0.17-0.64,0.17-1s-0.08-0.69-0.23-0.98L12.52,41z"/>
</g>
<path id="SVGID_x5F_2_x5F_" style="fill:none;" d="M352.38-120.13c0,26.39-21.39,47.78-47.78,47.78s-47.78-21.39-47.78-47.78
	s21.39-47.78,47.78-47.78S352.38-146.51,352.38-120.13z"/>
<text><textPath  xlink:href="#SVGID_x5F_2_x5F_" startOffset="79.8828%">
<tspan  style="font-family:'AnonymousPro-Regular'; font-size:18px; letter-spacing:11;">Doing </tspan><tspan  style="font-family:'AnonymousPro-Bold'; font-size:18px; letter-spacing:11;">Non-Doing</tspan><tspan  style="font-family:'AnonymousPro-Regular'; font-size:18px; letter-spacing:11;"> Doing </tspan><tspan  style="font-family:'AnonymousPro-Bold'; font-size:18px; letter-spacing:11;">Non-Doing</tspan></textPath>
</text>
</svg>
